<svg xmlns="http://www.w3.org/2000/svg" width="232.67" height="32.86" viewBox="0 0 232.67 32.86">
  <g>
    <path d="M12.13,22.94h-7V32.4H0V0H5.09V18.49H12l5.09-9.42h6.16L16.39,20.53,24.07,32.4h-6.2Z" fill="#FFFFFF" />
    <path d="M28.19,20.69c0-7.17,5-12.13,11.44-12.13,3.52,0,6,1.3,7.59,3.89h0V9.07H52.4V32.4H47.26V28.61h-.09a8.18,8.18,0,0,1-7.68,4.25C33.29,32.86,28.19,27.82,28.19,20.69Zm5.19,0c0,4.58,3,7.78,7.13,7.78s6.8-3.15,6.8-7.59v-.37C47.26,16,44.58,13,40.46,13S33.38,16.15,33.38,20.69Z" fill="#FFFFFF" />
    <path d="M84.39,28v4.4H60V28h9.58V4.4H60.74V0H74.63V28Z" fill="#FFFFFF" />
    <path d="M89.3,20.69c0-7.17,4.73-12.08,11.11-12.08,3.52,0,6.16,1.25,7.92,3.84h0V0h5.14V32.4h-5.14V28.61h-.09a8.86,8.86,0,0,1-8,4.25C94.07,32.86,89.3,27.82,89.3,20.69Zm5.19,0c0,4.58,3.05,7.78,7.13,7.78s6.8-3.15,6.8-7.59v-.37c0-4.49-2.73-7.5-6.85-7.5S94.49,16.15,94.49,20.69Z" fill="#FFFFFF" />
    <path d="M121,20.83c0-7,4.58-12.22,11.94-12.22s11.2,5.18,11.2,12.4v.93H126.25v0c.27,3.89,2.5,6.57,6.57,6.57A6.05,6.05,0,0,0,138.74,25H144c-1.38,4.53-4.9,7.91-11,7.91C125.32,32.86,121,27.73,121,20.83Zm17.87-2.5c-.6-3.33-2.41-5.55-6-5.55s-5.7,2.22-6.44,5.55Z" fill="#FFFFFF" />
    <path d="M174.07,8.7V14c-11.2-.74-12,2.78-12,10.27V28h9.11v4.4H151V28h6V13.47h-6V9.07h11.07v4.72C163.89,10.32,167.5,8.7,174.07,8.7Z" fill="#FFFFFF" />
    <path d="M204.44,20.69a12.22,12.22,0,0,1-24.44,0c0-7,5.19-12.08,12.22-12.08S204.44,13.66,204.44,20.69Zm-19.25,0c0,4.54,2.91,7.78,7,7.78s7-3.24,7-7.78-2.91-7.68-7-7.68S185.19,16.25,185.19,20.69Z" fill="#FFFFFF" />
    <path d="M225.72,18.93l-5.5-.83c-2.13-.33-3.38-1-3.38-2.5,0-1.85,1.94-3,5-3,2.77,0,4.67.93,5.35,2.78h5.22c-.88-4.29-4.79-6.81-10.75-6.81-6.2,0-10,2.73-10,7.13s3.47,5.92,7.08,6.43l5.46.79c2.55.37,3.29,1.57,3.29,2.73,0,1.85-1.85,3-5.14,3s-5.58-1.32-6.15-3.75H211c.69,5,4.85,7.87,11.39,7.87s10.33-2.82,10.33-7.45C232.67,21.48,229.75,19.53,225.72,18.93Z" fill="#FFFFFF" />
  </g>
</svg>